<?xml version="1.0" encoding="utf-8"?>
<svg viewBox="0 0 52 52" xmlns="http://www.w3.org/2000/svg">
  <defs>
    <filter id="filter">
      <feColorMatrix type="matrix" values="0 0 0 0 0.262745 0 0 0 0 0.329412 0 0 0 0 0.866667 0 0 0 1.000000 0"/>
    </filter>
  </defs>
  <g fill="none" stroke="none">
    <g filter="url(#filter)">
      <g>
        <rect x="0" y="4.26325641e-14" width="52" height="52"/>
      </g>
    </g>
  </g>
  <path d="M 31.046 29.467 L 40.343 31.028 Q 38.55 36.141 34.682 38.814 Q 30.813 41.487 25.003 41.487 Q 15.806 41.487 11.39 35.477 Q 7.903 30.663 7.903 23.325 Q 7.903 14.559 12.485 9.595 Q 17.067 4.631 24.073 4.631 Q 31.942 4.631 36.491 9.828 Q 41.04 15.024 40.841 25.749 L 17.466 25.749 Q 17.565 29.899 19.724 32.207 Q 21.882 34.514 25.102 34.514 Q 27.294 34.514 28.788 33.319 Q 30.282 32.124 31.046 29.467 Z M 31.577 20.038 Q 31.477 15.987 29.485 13.878 Q 27.493 11.77 24.638 11.77 Q 21.583 11.77 19.591 13.995 Q 17.599 16.219 17.632 20.038 Z" style="fill: rgb(79, 70, 229); white-space: pre; text-decoration: underline solid rgba(255, 255, 255, 0.8);"/>
</svg>